<?xml version="1.0" encoding="UTF-8" standalone="no"?>
<svg
   version="1.2"
   viewBox="0 0 720 540"
   width="720"
   height="540"
   id="svg1"
   sodipodi:docname="chevrons.svg"
   inkscape:version="1.4 (86a8ad7, 2024-10-11)"
   xmlns:inkscape="http://www.inkscape.org/namespaces/inkscape"
   xmlns:sodipodi="http://sodipodi.sourceforge.net/DTD/sodipodi-0.dtd"
   xmlns="http://www.w3.org/2000/svg"
   xmlns:svg="http://www.w3.org/2000/svg">
  <defs
     id="defs1" />
  <sodipodi:namedview
     id="namedview1"
     pagecolor="#ffffff"
     bordercolor="#000000"
     borderopacity="0.25"
     inkscape:showpageshadow="2"
     inkscape:pageopacity="0.0"
     inkscape:pagecheckerboard="0"
     inkscape:deskcolor="#d1d1d1"
     showgrid="false"
     inkscape:zoom="1.6355118"
     inkscape:cx="104.55443"
     inkscape:cy="136.04304"
     inkscape:window-width="3377"
     inkscape:window-height="1417"
     inkscape:window-x="-8"
     inkscape:window-y="-8"
     inkscape:window-maximized="1"
     inkscape:current-layer="Folder 3" />
  <title
     id="title1">chevrons</title>
  <style
     id="style1">
		.s0 { fill: #ffbf00 } 
		.s1 { fill: none;stroke: #000000;stroke-miterlimit:100;stroke-width: 1.5 } 
		.s2 { fill: #ed9900 } 
		.s3 { fill: none;stroke: #000000;paint-order:stroke fill markers;stroke-miterlimit:100;stroke-width: 4 } 
		.s4 { fill: #ade700 } 
		.s5 { fill: none;stroke: #000000;paint-order:stroke fill markers;stroke-miterlimit:100;stroke-width: 3 } 
	</style>
  <g
     id="Bottom"
     style="display:inline">
    <g
       id="Graffiti">
      <path
         id="Shape 127"
         class="s4"
         d="M 0,106 V 56 h 233.7 l 15.9,25 -15.9,25 z" />
      <path
         d="m 113.90039,71.199219 -2.20117,3.601562 H 95.699219 l 12.201171,19.798828 9.29883,-15.199218 H 104.40039 L 107,83.699219 h 4.80078 l -1,1.701172 H 106 105.9004 l -4.70117,-7.701172 h 17.10156 l 4,-6.5 z"
         style="fill:none;stroke:#000000;stroke-width:1.5;stroke-miterlimit:100;stroke-dasharray:none;paint-order:stroke fill markers"
         id="path2" />
      <path
         d="m 109,59.919135 c -11.69988,0 -21.080865,9.380985 -21.080865,21.080865 0,11.69988 9.380985,21.08086 21.080865,21.08086 11.69988,0 21.08086,-9.38098 21.08086,-21.08086 0,-11.69988 -9.38098,-21.080865 -21.08086,-21.080865 z m 0,3.697429 c 9.58086,0 17.38344,7.802579 17.38344,17.383436 0,9.580857 -7.80258,17.383436 -17.38344,17.383436 -9.580857,0 -17.383436,-7.802579 -17.383436,-17.383436 0,-9.580857 7.802579,-17.383436 17.383436,-17.383436 z"
         style="display:inline;fill:none;stroke:#000000;stroke-width:1.5;stroke-miterlimit:100;paint-order:stroke fill markers"
         id="path3"
         sodipodi:nodetypes="ssssssssss" />
    </g>
  </g>
</svg>
