<?xml version="1.0" encoding="UTF-8" standalone="no"?>
<svg
   version="1.2"
   viewBox="0 0 720 540"
   width="720"
   height="540"
   id="svg1"
   sodipodi:docname="chevrons.svg"
   inkscape:version="1.4 (86a8ad7, 2024-10-11)"
   xmlns:inkscape="http://www.inkscape.org/namespaces/inkscape"
   xmlns:sodipodi="http://sodipodi.sourceforge.net/DTD/sodipodi-0.dtd"
   xmlns="http://www.w3.org/2000/svg"
   xmlns:svg="http://www.w3.org/2000/svg">
  <defs
     id="defs1" />
  <sodipodi:namedview
     id="namedview1"
     pagecolor="#ffffff"
     bordercolor="#000000"
     borderopacity="0.25"
     inkscape:showpageshadow="2"
     inkscape:pageopacity="0.0"
     inkscape:pagecheckerboard="0"
     inkscape:deskcolor="#d1d1d1"
     showgrid="false"
     inkscape:zoom="1.6355118"
     inkscape:cx="104.55443"
     inkscape:cy="136.04304"
     inkscape:window-width="3377"
     inkscape:window-height="1417"
     inkscape:window-x="-8"
     inkscape:window-y="-8"
     inkscape:window-maximized="1"
     inkscape:current-layer="Folder 3" />
  <title
     id="title1">chevrons</title>
  <style
     id="style1">
		.s0 { fill: #ffbf00 } 
		.s1 { fill: none;stroke: #000000;stroke-miterlimit:100;stroke-width: 1.5 } 
		.s2 { fill: #ed9900 } 
		.s3 { fill: none;stroke: #000000;paint-order:stroke fill markers;stroke-miterlimit:100;stroke-width: 4 } 
		.s4 { fill: #ade700 } 
		.s5 { fill: none;stroke: #000000;paint-order:stroke fill markers;stroke-miterlimit:100;stroke-width: 3 } 
	</style>
  <g
     id="Top"
     style="display:inline">
    <g
       id="Folder 3"
       style="display:inline"
       inkscape:label="Timer">
      <path
         id="Shape 129"
         class="s0"
         d="M 0,51 V 15 H 280.9 L 292,33 280.9,51 Z" />
      <path
         id="Shape 122 copy"
         class="s1"
         d="m 176.5,49 c -8.3,0 -15,-6.7 -15,-15 0,-5.1 2.6,-9.6 6.4,-12.3 l -1.2,-2.1 4.5,-2.6 1.4,2.6 c 1.26667,-0.333333 2.56667,-0.5 3.9,-0.5 1.26667,0 2.5,0.133333 3.7,0.4 l 1.5,-2.5 4.4,2.6 -1.2,2.1 c 4,2.7 6.6,7.2 6.6,12.3 0,8.3 -6.7,15 -15,15 z m 11.63429,-15 c 0,-6.41073 -5.22356,-11.634288 -11.63429,-11.634288 -6.41073,0 -11.63429,5.223558 -11.63429,11.634288 0,6.529447 5.22356,11.634288 11.63429,11.634288 6.41073,0 11.63429,-5.104841 11.63429,-11.634288 z M 176.5,36.6 c -1.4,0 -2.6,-1.1 -2.6,-2.6 0,-0.9 0.6,-1.8 1.4,-2.2 l 0.7,-6.5 h 1 l 0.7,6.5 c 0.8,0.4 1.4,1.3 1.4,2.2 0,1.5 -1.2,2.6 -2.6,2.6 z"
         sodipodi:nodetypes="ssccccsccccsssssssssccccss" />
    </g>
  </g>
</svg>
