<svg version="1.2" xmlns="http://www.w3.org/2000/svg" viewBox="0 0 1178 1080" width="1178" height="1080">
	<style>
		.s0 { fill: #cccccc } 
	</style>
	<path id="LEFT TEAM" fill-rule="evenodd" class="s0" d="m0 0h720v205q0 0 0 0v-10c0 5.52 4.48 10 10 10h438c5.52 0 10 4.48 10 10v26c0 5.52-4.48 10-10 10h-438c-5.52 0-10 4.48-10 10v-10q0 0 0 0v289 540c-5.63 0-480.37 0-486 0h-234zm715 530v-515c0-5.52-4.48-10-10-10h-690c-5.52 0-10 4.48-10 10v485c0 5.52 4.48 10 10 10 4.12 0 9.18 0 15 0 51.73 0 163.05 0 201 0 0.65 0 12.99 0 12.99 0q0 0.02 0 0.05c5.06 0.49 9.01 4.76 9.01 9.95h127c5.52 0 10 4.48 10 10 0 5.52 4.48 10 10 10h305c5.52 0 10-4.48 10-10zm12-288c0 2.76 2.24 5 5 5h60c2.76 0 5-2.24 5-5v-28c0-2.76-2.24-5-5-5h-60c-2.76 0-5 2.24-5 5zm-722 313v480c0 5.52 4.48 10 10 10q0 0 0 0c52.26 0 175.69 0 216 0 0.65 0 12.99 0 12.99 0q0 0.02 0 0.05c5.06 0.49 9.01 4.76 9.01 9.95h127c5.52 0 10 4.48 10 10 0 5.52 4.48 10 10 10h305c5.52 0 10-4.48 10-10v-510c0-5.52-4.48-10-10-10h-690c-5.52 0-10 4.48-10 10z"/>
</svg>