<svg version="1.2" xmlns="http://www.w3.org/2000/svg" viewBox="0 0 1178 1080" width="1178" height="1080">
	<style>
		.s0 { fill: #cccccc } 
	</style>
	<path id="RIGHT TEAM" fill-rule="evenodd" class="s0" d="m458 307q0 0 0 0v10c0-5.52-4.48-10-10-10h-438c-5.52 0-10-4.48-10-10v-26c0-5.52 4.48-10 10-10h438c5.52 0 10-4.48 10-10v10q0 0 0 0v-261h720v1080c-5.63 0-384.37 0-390 0h-330v-540zm330 223c0-5.52 4.48-10 10-10h127c0-5.19 3.95-9.46 9.01-9.95q0-0.03 0-0.05 0.01 0 0.99 0c37.95 0 161.27 0 213 0h15c5.52 0 10-4.48 10-10v-485c0-5.52-4.48-10-10-10h-690c-5.52 0-10 4.48-10 10v515c0 5.52 4.48 10 10 10h305c5.52 0 10-4.48 10-10zm-337-260c0-2.76-2.24-5-5-5h-60c-2.76 0-5 2.24-5 5v28c0 2.76 2.24 5 5 5h60c2.76 0 5-2.24 5-5zm712 275h-690c-5.52 0-10 4.48-10 10v510c0 5.52 4.48 10 10 10h305c5.52 0 10-4.48 10-10 0-5.52 4.48-10 10-10h127c0-5.19 3.95-9.46 9.01-9.95q0-0.03 0-0.05 0.01 0 0.99 0c37.95 0 161.27 0 213 0h15c5.52 0 10-4.48 10-10v-480c0-5.52-4.48-10-10-10z"/>
</svg>