<svg version="1.2" xmlns="http://www.w3.org/2000/svg" viewBox="0 0 287 209" width="287" height="209">
	<style>
		.s0 { fill: #000000;stroke: #ffffff;paint-order:stroke fill markers;stroke-linecap: round;stroke-miterlimit:100;stroke-width: 4 } 
		.s1 { fill: #666666 } 
		.s2 { fill: #cccccc } 
		.s3 { fill: #c42615 } 
		.s4 { fill: #1c890c } 
		.s5 { fill: #ffbf00;stroke: #000000;paint-order:stroke fill markers;stroke-linecap: round;stroke-linejoin: round;stroke-width: 4 } 
		.s6 { fill: #032595 } 
		.s7 { fill: #b831e3 } 
		.s8 { fill: #ffff00 } 
		.s9 { fill: #fda3cb } 
		.s10 { fill: #ee872b } 
		.s11 { fill: #8fafff } 
	</style>
	<g id="Schedule">
		<g id="Shapes">
			<path id="Black" class="s0" d="m3 35h269c6.63-0.46 12 5.09 12 12v162c-44.46 0-267.67 0-281 0zm204 25h-196c-4.42 0-8-3.58-8-8v-41c0-4.42 3.58-8 8-8h188c4.42 0 8 3.58 8 8v41c0 4.42 0 4.4 0 8z"/>
			<path id="Grey1" fill-rule="evenodd" class="s1" d="m7 209v-161c0-4.42 3.58-8 8-8h257c4.42 0 8 3.58 8 8v161c-25.66 0-230.54 0-273 0z"/>
			<path id="Grey2" class="s2" d="m212 86v36h-192v-36zm0 41v36h-192v-36zm0 41v36h-192v-36zm0-123v36h-192v-36z"/>
		</g>
		<g id="Matches">
			<g id="Match 1">
				<path id="1-Team-L" fill-rule="evenodd" class="s3" d="m20 45.05v35.9c-5.05-0.5-9-4.76-9-9.95v-16c0-5.19 3.95-9.45 9-9.95z"/>
				<path id="1-Team-R" fill-rule="evenodd" class="s4" d="m212 80.95v-35.9c5.05 0.5 9 4.76 9 9.95v16c0 5.19-3.95 9.45-9 9.95z"/>
				<path id="1-vs" class="s5" d="m112.64 110.2h-2.78l-3.94-10.6h2.7l2.66 7.56 2.62-7.56h2.7zm8.96 0.2q-1.3 0-2.14-0.34-0.84-0.36-1.34-0.88-0.48-0.54-0.72-1.06-0.24-0.52-0.32-0.86-0.06-0.36-0.06-0.36h2.52q0 0 0.06 0.22 0.08 0.22 0.28 0.52 0.22 0.28 0.66 0.5 0.44 0.22 1.16 0.22 0.86 0 1.24-0.36 0.38-0.38 0.38-0.84 0-0.44-0.34-0.7-0.32-0.28-0.96-0.42l-1.46-0.3q-0.88-0.18-1.64-0.52-0.76-0.36-1.24-0.96-0.48-0.62-0.48-1.58 0-1.42 1.08-2.34 1.08-0.94 2.94-0.94 1.18 0 1.94 0.32 0.78 0.32 1.24 0.8 0.48 0.48 0.7 0.96 0.24 0.48 0.3 0.82 0.08 0.32 0.08 0.32h-2.44q0 0-0.06-0.18-0.06-0.2-0.26-0.44-0.18-0.24-0.56-0.42-0.36-0.2-0.98-0.2-0.84 0-1.2 0.36-0.34 0.36-0.34 0.76 0 0.44 0.38 0.68 0.38 0.24 0.98 0.36l1.38 0.3q1.48 0.3 2.42 1.04 0.96 0.74 0.96 2.14 0 0.94-0.5 1.72-0.48 0.76-1.42 1.22-0.92 0.44-2.24 0.44z"/>
			</g>
			<g id="Match-2">
				<path id="2-Team-L" fill-rule="evenodd" class="s6" d="m20 86.05v35.9c-5.05-0.5-9-4.76-9-9.95v-16c0-5.19 3.95-9.45 9-9.95z"/>
				<path id="2-Team-R" fill-rule="evenodd" class="s7" d="m212 121.95v-35.9c5.05 0.5 9 4.76 9 9.95v16c0 5.19-3.95 9.45-9 9.95z"/>
				<path id="2-vs" class="s5" d="m112.64 69.2h-2.78l-3.94-10.6h2.7l2.66 7.56 2.62-7.56h2.7zm8.96 0.2q-1.3 0-2.14-0.34-0.84-0.36-1.34-0.88-0.48-0.54-0.72-1.06-0.24-0.52-0.32-0.86-0.06-0.36-0.06-0.36h2.52q0 0 0.06 0.22 0.08 0.22 0.28 0.52 0.22 0.28 0.66 0.5 0.44 0.22 1.16 0.22 0.86 0 1.24-0.36 0.38-0.38 0.38-0.84 0-0.44-0.34-0.7-0.32-0.28-0.96-0.42l-1.46-0.3q-0.88-0.18-1.64-0.52-0.76-0.36-1.24-0.96-0.48-0.62-0.48-1.58 0-1.42 1.08-2.34 1.08-0.94 2.94-0.94 1.18 0 1.94 0.32 0.78 0.32 1.24 0.8 0.48 0.48 0.7 0.96 0.24 0.48 0.3 0.82 0.08 0.32 0.08 0.32h-2.44q0 0-0.06-0.18-0.06-0.2-0.26-0.44-0.18-0.24-0.56-0.42-0.36-0.2-0.98-0.2-0.84 0-1.2 0.36-0.34 0.36-0.34 0.76 0 0.44 0.38 0.68 0.38 0.24 0.98 0.36l1.38 0.3q1.48 0.3 2.42 1.04 0.96 0.74 0.96 2.14 0 0.94-0.5 1.72-0.48 0.76-1.42 1.22-0.92 0.44-2.24 0.44z"/>
			</g>
			<g id="Match-3">
				<path id="3-Team-L" fill-rule="evenodd" class="s8" d="m20 127.05v35.9c-5.05-0.5-9-4.76-9-9.95v-16c0-5.19 3.95-9.45 9-9.95z"/>
				<path id="3-Team-R" fill-rule="evenodd" class="s9" d="m212 162.95v-35.9c5.05 0.5 9 4.76 9 9.95v16c0 5.19-3.95 9.45-9 9.95z"/>
				<path id="3-vs" class="s5" d="m112.64 151.2h-2.78l-3.94-10.6h2.7l2.66 7.56 2.62-7.56h2.7zm8.96 0.2q-1.3 0-2.14-0.34-0.84-0.36-1.34-0.88-0.48-0.54-0.72-1.06-0.24-0.52-0.32-0.86-0.06-0.36-0.06-0.36h2.52q0 0 0.06 0.22 0.08 0.22 0.28 0.52 0.22 0.28 0.66 0.5 0.44 0.22 1.16 0.22 0.86 0 1.24-0.36 0.38-0.38 0.38-0.84 0-0.44-0.34-0.7-0.32-0.28-0.96-0.42l-1.46-0.3q-0.88-0.18-1.64-0.52-0.76-0.36-1.24-0.96-0.48-0.62-0.48-1.58 0-1.42 1.08-2.34 1.08-0.94 2.94-0.94 1.18 0 1.94 0.32 0.78 0.32 1.24 0.8 0.48 0.48 0.7 0.96 0.24 0.48 0.3 0.82 0.08 0.32 0.08 0.32h-2.44q0 0-0.06-0.18-0.06-0.2-0.26-0.44-0.18-0.24-0.56-0.42-0.36-0.2-0.98-0.2-0.84 0-1.2 0.36-0.34 0.36-0.34 0.76 0 0.44 0.38 0.68 0.38 0.24 0.98 0.36l1.38 0.3q1.48 0.3 2.42 1.04 0.96 0.74 0.96 2.14 0 0.94-0.5 1.72-0.48 0.76-1.42 1.22-0.92 0.44-2.24 0.44z"/>
			</g>
			<g id="Match-4">
				<path id="4-Team-L" fill-rule="evenodd" class="s10" d="m20 168.05v35.9c-5.05-0.5-9-4.76-9-9.95v-16c0-5.19 3.95-9.45 9-9.95z"/>
				<path id="4-Team-R" fill-rule="evenodd" class="s11" d="m212 203.95v-35.9c5.05 0.5 9 4.76 9 9.95v16c0 5.19-3.95 9.45-9 9.95z"/>
				<path id="4-vs" class="s5" d="m112.64 192.2h-2.78l-3.94-10.6h2.7l2.66 7.56 2.62-7.56h2.7zm8.96 0.2q-1.3 0-2.14-0.34-0.84-0.36-1.34-0.88-0.48-0.54-0.72-1.06-0.24-0.52-0.32-0.86-0.06-0.36-0.06-0.36h2.52q0 0 0.06 0.22 0.08 0.22 0.28 0.52 0.22 0.28 0.66 0.5 0.44 0.22 1.16 0.22 0.86 0 1.24-0.36 0.38-0.38 0.38-0.84 0-0.44-0.34-0.7-0.32-0.28-0.96-0.42l-1.46-0.3q-0.88-0.18-1.64-0.52-0.76-0.36-1.24-0.96-0.48-0.62-0.48-1.58 0-1.42 1.08-2.34 1.08-0.94 2.94-0.94 1.18 0 1.94 0.32 0.78 0.32 1.24 0.8 0.48 0.48 0.7 0.96 0.24 0.48 0.3 0.82 0.08 0.32 0.08 0.32h-2.44q0 0-0.06-0.18-0.06-0.2-0.26-0.44-0.18-0.24-0.56-0.42-0.36-0.2-0.98-0.2-0.84 0-1.2 0.36-0.34 0.36-0.34 0.76 0 0.44 0.38 0.68 0.38 0.24 0.98 0.36l1.38 0.3q1.48 0.3 2.42 1.04 0.96 0.74 0.96 2.14 0 0.94-0.5 1.72-0.48 0.76-1.42 1.22-0.92 0.44-2.24 0.44z"/>
			</g>
		</g>
	</g>
</svg>