<?xml version="1.0" encoding="UTF-8" standalone="no"?>
<svg
   version="1.2"
   viewBox="0 0 1920 1080"
   width="1920"
   height="1080"
   id="Standings-svg"
   sodipodi:docname="Standings.svg"
   inkscape:version="1.4 (86a8ad7, 2024-10-11)"
   xmlns:inkscape="http://www.inkscape.org/namespaces/inkscape"
   xmlns:sodipodi="http://sodipodi.sourceforge.net/DTD/sodipodi-0.dtd"
   xmlns="http://www.w3.org/2000/svg"
   xmlns:svg="http://www.w3.org/2000/svg">
  <defs
     id="standings-defs" />
  <style
     id="style1">
		.s0 { fill: #000000;stroke: #ffffff;paint-order:stroke fill markers;stroke-linecap: round;stroke-linejoin: round;stroke-width: 4 } 
		.s1 { fill: #cccccc } 
		.s2 { fill: #ffffff } 
		.s3 { fill: #ff3333 } 
	</style>
  <g
     id="Standings">
    <g
       id="Standings-1st"
       style="display:inline"
       inkscape:label="Standings-1st">
      <g
         id="1st-Black">
        <path
           id="1st-B1"
           fill-rule="evenodd"
           class="s0"
           d="m 498,90 h 620 c 5.52,0 10,4.48 10,10 v 60 c 0,5.52 -4.48,10 -10,10 H 498 c -5.52,0 -10,-4.48 -10,-10 v -60 c 0,-5.52 4.48,-10 10,-10 z" />
        <path
           id="1st-B2"
           fill-rule="evenodd"
           class="s0"
           d="m 1150,90 h 96 c 5.52,0 10,4.48 10,10 v 40 c 0,5.52 -4.48,10 -10,10 h -96 c -5.52,0 -10,-4.48 -10,-10 v -40 c 0,-5.52 4.48,-10 10,-10 z" />
        <path
           id="1st-B3"
           fill-rule="evenodd"
           class="s0"
           d="m 1278,90 h 96 c 5.52,0 10,4.48 10,10 v 40 c 0,5.52 -4.48,10 -10,10 h -96 c -5.52,0 -10,-4.48 -10,-10 v -40 c 0,-5.52 4.48,-10 10,-10 z" />
        <path
           id="1st-B4"
           fill-rule="evenodd"
           class="s0"
           d="m 1406,90 h 376 c 5.52,0 10,4.48 10,10 v 40 c 0,5.52 -4.48,10 -10,10 h -376 c -5.52,0 -10,-4.48 -10,-10 v -40 c 0,-5.52 4.48,-10 10,-10 z" />
      </g>
      <g
         id="1st-Grey"
         style="display:inline">
        <path
           id="1st-G1"
           fill-rule="evenodd"
           class="s1"
           d="m 608,94 h 508 c 4.42,0 8,3.58 8,8 v 36 c 0,4.42 -3.58,8 -8,8 H 608 c -4.42,0 -8,-3.58 -8,-8 v -36 c 0,-4.42 3.58,-8 8,-8 z" />
        <path
           id="1st-G2"
           fill-rule="evenodd"
           class="s1"
           d="m 1152,94 h 92 c 4.42,0 8,3.58 8,8 v 36 c 0,4.42 -3.58,8 -8,8 h -92 c -4.42,0 -8,-3.58 -8,-8 v -36 c 0,-4.42 3.58,-8 8,-8 z" />
        <path
           id="1st-G3"
           fill-rule="evenodd"
           class="s1"
           d="m 1280,94 h 92 c 4.42,0 8,3.58 8,8 v 36 c 0,4.42 -3.58,8 -8,8 h -92 c -4.42,0 -8,-3.58 -8,-8 v -36 c 0,-4.42 3.58,-8 8,-8 z" />
        <path
           id="1st-G4"
           class="s1"
           d="m 1408,94 h 36 c 4.42,0 8,3.58 8,8 v 36 c 0,4.42 -3.58,8 -8,8 h -36 c -4.42,0 -8,-3.58 -8,-8 v -36 c 0,-4.42 3.58,-8 8,-8 z m 56,0 h 36 c 4.42,0 8,3.58 8,8 v 36 c 0,4.42 -3.58,8 -8,8 h -36 c -4.42,0 -8,-3.58 -8,-8 v -36 c 0,-4.42 3.58,-8 8,-8 z m 56,0 h 36 c 4.42,0 8,3.58 8,8 v 36 c 0,4.42 -3.58,8 -8,8 h -36 c -4.42,0 -8,-3.58 -8,-8 v -36 c 0,-4.42 3.58,-8 8,-8 z m 56,0 h 36 c 4.42,0 8,3.58 8,8 v 36 c 0,4.42 -3.58,8 -8,8 h -36 c -4.42,0 -8,-3.58 -8,-8 v -36 c 0,-4.42 3.58,-8 8,-8 z m 56,0 h 36 c 4.42,0 8,3.58 8,8 v 36 c 0,4.42 -3.58,8 -8,8 h -36 c -4.42,0 -8,-3.58 -8,-8 v -36 c 0,-4.42 3.58,-8 8,-8 z m 56,0 h 36 c 4.42,0 8,3.58 8,8 v 36 c 0,4.42 -3.58,8 -8,8 h -36 c -4.42,0 -8,-3.58 -8,-8 v -36 c 0,-4.42 3.58,-8 8,-8 z m 56,0 h 36 c 4.42,0 8,3.58 8,8 v 36 c 0,4.42 -3.58,8 -8,8 h -36 c -4.42,0 -8,-3.58 -8,-8 v -36 c 0,-4.42 3.58,-8 8,-8 z" />
      </g>
      <path
         id="1st"
         class="s2"
         d="m 530.28,156 h -8.75 l 7.24,-47.25 h -3.55 q -0.96,0 -1.44,-0.55 -0.54,-0.56 -0.41,-1.42 l 0.62,-3.94 q 0.14,-0.8 0.82,-1.35 0.68,-0.61 1.64,-0.61 l 10.12,-0.01 q 0.89,0 1.43,0.62 0.62,0.55 0.48,1.35 z m 23.53,-15 h -14.22 q -0.48,0 -0.78,-0.24 -0.24,-0.31 -0.18,-0.74 l 0.31,-1.97 q 0.07,-0.37 0.38,-0.68 0.37,-0.3 0.85,-0.3 h 12.03 l 0.62,-3.94 h -10.94 q -0.95,0 -1.47,-0.55 -0.54,-0.56 -0.41,-1.42 l 1.23,-7.88 q 0.11,-0.79 0.82,-1.35 0.72,-0.61 1.68,-0.61 h 14.22 q 0.41,0 0.68,0.3 0.31,0.31 0.24,0.68 l -0.31,1.97 q -0.07,0.43 -0.44,0.74 -0.38,0.24 -0.79,0.24 H 545.3 l -0.62,3.94 h 10.94 q 0.89,0 1.4,0.62 0.62,0.55 0.48,1.35 l -1.23,7.88 q -0.1,0.86 -0.89,1.41 -0.68,0.55 -1.57,0.55 z m 15.75,0 h -3.29 q -0.95,0 -1.5,-0.55 -0.51,-0.55 -0.41,-1.42 l 2.15,-13.78 h -3.28 q -0.48,0 -0.78,-0.24 -0.24,-0.31 -0.17,-0.74 l 0.3,-1.97 q 0.07,-0.37 0.38,-0.68 0.41,-0.3 0.89,-0.3 h 3.28 l 1.06,-6.89 q 0.03,-0.37 0.37,-0.68 0.38,-0.31 0.86,-0.31 h 2.19 q 0.41,0 0.71,0.31 0.28,0.31 0.24,0.68 l -1.06,6.89 h 3.29 q 0.41,0 0.68,0.3 0.31,0.31 0.24,0.68 l -0.31,1.97 q -0.07,0.43 -0.44,0.74 -0.38,0.24 -0.79,0.24 h -3.28 l -1.85,11.82 h 1.1 q 0.41,0 0.71,0.3 0.31,0.31 0.24,0.68 l -0.3,1.97 q -0.07,0.43 -0.45,0.74 -0.37,0.24 -0.78,0.24 z" />
    </g>
    <g
       id="Standings-2nd"
       inkscape:label="Standings-2nd">
      <g
         id="2nd-Black">
        <path
           id="2nd-B1"
           fill-rule="evenodd"
           class="s0"
           d="m498 178h620c5.52 0 10 4.48 10 10v60c0 5.52-4.48 10-10 10h-620c-5.52 0-10-4.48-10-10v-60c0-5.52 4.48-10 10-10z" />
        <path
           id="2nd-B2"
           fill-rule="evenodd"
           class="s0"
           d="m1150 178h96c5.52 0 10 4.48 10 10v40c0 5.52-4.48 10-10 10h-96c-5.52 0-10-4.48-10-10v-40c0-5.52 4.48-10 10-10z" />
        <path
           id="2nd-B3"
           fill-rule="evenodd"
           class="s0"
           d="m1278 178h96c5.52 0 10 4.48 10 10v40c0 5.52-4.48 10-10 10h-96c-5.52 0-10-4.48-10-10v-40c0-5.52 4.48-10 10-10z" />
        <path
           id="2nd-B4"
           fill-rule="evenodd"
           class="s0"
           d="m1406 178h376c5.52 0 10 4.48 10 10v40c0 5.52-4.48 10-10 10h-376c-5.52 0-10-4.48-10-10v-40c0-5.52 4.48-10 10-10z" />
      </g>
      <g
         id="2nd-Grey">
        <path
           id="2nd-G1"
           fill-rule="evenodd"
           class="s1"
           d="m608 182h508c4.42 0 8 3.58 8 8v36c0 4.42-3.58 8-8 8h-508c-4.42 0-8-3.58-8-8v-36c0-4.42 3.58-8 8-8z" />
        <path
           id="2nd-G2"
           fill-rule="evenodd"
           class="s1"
           d="m1152 182h92c4.42 0 8 3.58 8 8v36c0 4.42-3.58 8-8 8h-92c-4.42 0-8-3.58-8-8v-36c0-4.42 3.58-8 8-8z" />
        <path
           id="2nd-G3"
           fill-rule="evenodd"
           class="s1"
           d="m1280 182h92c4.42 0 8 3.58 8 8v36c0 4.42-3.58 8-8 8h-92c-4.42 0-8-3.58-8-8v-36c0-4.42 3.58-8 8-8z" />
        <path
           id="2nd-G4"
           class="s1"
           d="m1408 182h36c4.42 0 8 3.58 8 8v36c0 4.42-3.58 8-8 8h-36c-4.42 0-8-3.58-8-8v-36c0-4.42 3.58-8 8-8zm56 0h36c4.42 0 8 3.58 8 8v36c0 4.42-3.58 8-8 8h-36c-4.42 0-8-3.58-8-8v-36c0-4.42 3.58-8 8-8zm56 0h36c4.42 0 8 3.58 8 8v36c0 4.42-3.58 8-8 8h-36c-4.42 0-8-3.58-8-8v-36c0-4.42 3.58-8 8-8zm56 0h36c4.42 0 8 3.58 8 8v36c0 4.42-3.58 8-8 8h-36c-4.42 0-8-3.58-8-8v-36c0-4.42 3.58-8 8-8zm56 0h36c4.42 0 8 3.58 8 8v36c0 4.42-3.58 8-8 8h-36c-4.42 0-8-3.58-8-8v-36c0-4.42 3.58-8 8-8zm56 0h36c4.42 0 8 3.58 8 8v36c0 4.42-3.58 8-8 8h-36c-4.42 0-8-3.58-8-8v-36c0-4.42 3.58-8 8-8zm56 0h36c4.42 0 8 3.58 8 8v36c0 4.42-3.58 8-8 8h-36c-4.42 0-8-3.58-8-8v-36c0-4.42 3.58-8 8-8z" />
      </g>
      <path
         id="2nd"
         fill-rule="evenodd"
         class="s2"
         d="m535.73 244h-30.62q-0.96 0-1.57-0.49-0.48-0.62-0.34-1.48l3.34-21.66 9.99-7.87h17.5l2.39-15.75h-24.06q-0.96 0-1.58-0.49-0.41-0.62-0.27-1.48l0.61-3.94q0.07-0.73 0.76-1.35 0.75-0.61 1.71-0.61h28.43q1.78 0 2.81 1.23 1.23 1.1 0.95 2.7l-3.62 23.63q-0.27 1.72-1.85 2.83-1.36 1.11-3.14 1.11h-17.5l-4.99 3.93-1.85 11.82h24.07q0.82 0 1.43 0.61 0.62 0.62 0.48 1.35l-0.61 3.94q-0.14 0.86-0.89 1.48-0.76 0.49-1.58 0.49zm13.05-15h-2.19q-0.48 0-0.79-0.25-0.24-0.3-0.17-0.73l2.74-17.72q0.06-0.37 0.37-0.68 0.41-0.31 0.89-0.31h14.22q0.89 0 1.4 0.62 0.58 0.55 0.48 1.35l-2.6 16.74q-0.07 0.43-0.44 0.73-0.38 0.25-0.79 0.25h-2.19q-0.47 0-0.78-0.25-0.24-0.3-0.17-0.73l2.29-14.77h-8.75l-2.29 14.77q-0.07 0.43-0.45 0.73-0.37 0.25-0.78 0.25zm35.85 0h-14.22q-0.96 0-1.5-0.55-0.52-0.56-0.41-1.42l2.46-15.75q0.1-0.8 0.82-1.35 0.71-0.62 1.67-0.62h10.94l1.06-6.89q0.03-0.37 0.37-0.67 0.38-0.31 0.86-0.31h2.19q0.41 0 0.71 0.31 0.28 0.3 0.24 0.67l-3.96 25.6q-0.07 0.43-0.45 0.73-0.37 0.25-0.78 0.25zm-11.45-3.94h8.75l1.84-11.81h-8.75z" />
    </g>
    <g
       id="Standings-3rd"
       inkscape:label="Standings-3rd">
      <g
         id="3rd-Black">
        <path
           id="3rd-B1"
           fill-rule="evenodd"
           class="s0"
           d="m498 266h620c5.52 0 10 4.48 10 10v60c0 5.52-4.48 10-10 10h-620c-5.52 0-10-4.48-10-10v-60c0-5.52 4.48-10 10-10z" />
        <path
           id="3rd-B2"
           fill-rule="evenodd"
           class="s0"
           d="m1150 266h96c5.52 0 10 4.48 10 10v40c0 5.52-4.48 10-10 10h-96c-5.52 0-10-4.48-10-10v-40c0-5.52 4.48-10 10-10z" />
        <path
           id="3rd-B3"
           fill-rule="evenodd"
           class="s0"
           d="m1278 266h96c5.52 0 10 4.48 10 10v40c0 5.52-4.48 10-10 10h-96c-5.52 0-10-4.48-10-10v-40c0-5.52 4.48-10 10-10z" />
        <path
           id="3rd-B4"
           fill-rule="evenodd"
           class="s0"
           d="m1406 266h376c5.52 0 10 4.48 10 10v40c0 5.52-4.48 10-10 10h-376c-5.52 0-10-4.48-10-10v-40c0-5.52 4.48-10 10-10z" />
      </g>
      <g
         id="3rd-Grey"
         style="display:inline">
        <path
           id="3rd-G1"
           fill-rule="evenodd"
           class="s1"
           d="m 608,270 h 508 c 4.42,0 8,3.58 8,8 v 36 c 0,4.42 -3.58,8 -8,8 H 608 c -4.42,0 -8,-3.58 -8,-8 v -36 c 0,-4.42 3.58,-8 8,-8 z" />
        <path
           id="3rd-G2"
           fill-rule="evenodd"
           class="s1"
           d="m 1152,270 h 92 c 4.42,0 8,3.58 8,8 v 36 c 0,4.42 -3.58,8 -8,8 h -92 c -4.42,0 -8,-3.58 -8,-8 v -36 c 0,-4.42 3.58,-8 8,-8 z"
           inkscape:label="3rd-G2" />
        <path
           id="3rd-G3"
           fill-rule="evenodd"
           class="s1"
           d="m 1280,270 h 92 c 4.42,0 8,3.58 8,8 v 36 c 0,4.42 -3.58,8 -8,8 h -92 c -4.42,0 -8,-3.58 -8,-8 v -36 c 0,-4.42 3.58,-8 8,-8 z"
           inkscape:label="3rd-G3" />
        <path
           id="3rd-G4"
           class="s1"
           d="m 1408,270 h 36 c 4.42,0 8,3.58 8,8 v 36 c 0,4.42 -3.58,8 -8,8 h -36 c -4.42,0 -8,-3.58 -8,-8 v -36 c 0,-4.42 3.58,-8 8,-8 z m 56,0 h 36 c 4.42,0 8,3.58 8,8 v 36 c 0,4.42 -3.58,8 -8,8 h -36 c -4.42,0 -8,-3.58 -8,-8 v -36 c 0,-4.42 3.58,-8 8,-8 z m 56,0 h 36 c 4.42,0 8,3.58 8,8 v 36 c 0,4.42 -3.58,8 -8,8 h -36 c -4.42,0 -8,-3.58 -8,-8 v -36 c 0,-4.42 3.58,-8 8,-8 z m 56,0 h 36 c 4.42,0 8,3.58 8,8 v 36 c 0,4.42 -3.58,8 -8,8 h -36 c -4.42,0 -8,-3.58 -8,-8 v -36 c 0,-4.42 3.58,-8 8,-8 z m 56,0 h 36 c 4.42,0 8,3.58 8,8 v 36 c 0,4.42 -3.58,8 -8,8 h -36 c -4.42,0 -8,-3.58 -8,-8 v -36 c 0,-4.42 3.58,-8 8,-8 z m 56,0 h 36 c 4.42,0 8,3.58 8,8 v 36 c 0,4.42 -3.58,8 -8,8 h -36 c -4.42,0 -8,-3.58 -8,-8 v -36 c 0,-4.42 3.58,-8 8,-8 z m 56,0 h 36 c 4.42,0 8,3.58 8,8 v 36 c 0,4.42 -3.58,8 -8,8 h -36 c -4.42,0 -8,-3.58 -8,-8 v -36 c 0,-4.42 3.58,-8 8,-8 z"
           inkscape:label="3rd-G4" />
      </g>
      <path
         id="3rd"
         fill-rule="evenodd"
         class="s2"
         d="m535.41 332h-28.44q-0.95 0-1.57-0.49-0.48-0.62-0.34-1.48l0.61-3.94q0.14-0.73 0.76-1.35 0.75-0.61 1.7-0.61l24.07-0.01 2.46-15.74h-15.31q-0.96 0-1.58-0.5-0.48-0.61-0.34-1.47l0.62-3.94q0.13-0.74 0.75-1.35 0.82-0.62 1.78-0.62h15.31l2.39-15.75h-24.06q-0.96 0-1.57-0.49-0.41-0.62-0.28-1.48l0.62-3.94q0.07-0.73 0.75-1.35 0.75-0.61 1.71-0.61h28.44q1.77 0 2.8 1.23 1.23 1.1 0.96 2.7l-7.32 47.25q-0.2 1.73-1.78 2.83-1.36 1.11-3.14 1.11zm15.37-15h-2.19q-0.48 0-0.79-0.25-0.24-0.3-0.17-0.73l2.6-16.74q0.1-0.8 0.82-1.35 0.72-0.62 1.67-0.62h11.35q0.41 0 0.69 0.31 0.3 0.31 0.24 0.68l-0.31 1.97q-0.07 0.43-0.45 0.73-0.37 0.25-0.78 0.25h-9.16l-2.29 14.77q-0.07 0.43-0.45 0.73-0.37 0.25-0.78 0.25zm31.85 0h-14.22q-0.96 0-1.5-0.55-0.52-0.56-0.41-1.42l2.46-15.75q0.1-0.8 0.82-1.35 0.71-0.62 1.67-0.62h10.94l1.06-6.89q0.03-0.37 0.37-0.67 0.38-0.31 0.86-0.31h2.19q0.41 0 0.71 0.31 0.28 0.3 0.24 0.67l-3.96 25.6q-0.07 0.43-0.45 0.73-0.37 0.25-0.78 0.25zm-11.45-3.94h8.75l1.84-11.81h-8.75z" />
    </g>
    <g
       id="Standings-4th"
       inkscape:label="Standings-4th">
      <g
         id="4th-Black">
        <path
           id="4th-B1"
           fill-rule="evenodd"
           class="s0"
           d="m498 354h620c5.52 0 10 4.48 10 10v60c0 5.52-4.48 10-10 10h-620c-5.52 0-10-4.48-10-10v-60c0-5.52 4.48-10 10-10z" />
        <path
           id="4th-B2"
           fill-rule="evenodd"
           class="s0"
           d="m1150 354h96c5.52 0 10 4.48 10 10v40c0 5.52-4.48 10-10 10h-96c-5.52 0-10-4.48-10-10v-40c0-5.52 4.48-10 10-10z" />
        <path
           id="4th-B3"
           fill-rule="evenodd"
           class="s0"
           d="m1278 354h96c5.52 0 10 4.48 10 10v40c0 5.52-4.48 10-10 10h-96c-5.52 0-10-4.48-10-10v-40c0-5.52 4.48-10 10-10z" />
        <path
           id="4th-B4"
           fill-rule="evenodd"
           class="s0"
           d="m1406 354h376c5.52 0 10 4.48 10 10v40c0 5.52-4.48 10-10 10h-376c-5.52 0-10-4.48-10-10v-40c0-5.52 4.48-10 10-10z" />
      </g>
      <g
         id="g24"
         style="display:inline"
         inkscape:label="4th-Grey">
        <path
           id="4th-G1"
           fill-rule="evenodd"
           class="s1"
           d="m 608,358 h 508 c 4.42,0 8,3.58 8,8 v 36 c 0,4.42 -3.58,8 -8,8 H 608 c -4.42,0 -8,-3.58 -8,-8 v -36 c 0,-4.42 3.58,-8 8,-8 z"
           inkscape:label="4th-G1" />
        <path
           id="4th-G2"
           fill-rule="evenodd"
           class="s1"
           d="m 1152,358 h 92 c 4.42,0 8,3.58 8,8 v 36 c 0,4.42 -3.58,8 -8,8 h -92 c -4.42,0 -8,-3.58 -8,-8 v -36 c 0,-4.42 3.58,-8 8,-8 z"
           inkscape:label="4th-G2" />
        <path
           id="4th-G3"
           fill-rule="evenodd"
           class="s1"
           d="m 1280,358 h 92 c 4.42,0 8,3.58 8,8 v 36 c 0,4.42 -3.58,8 -8,8 h -92 c -4.42,0 -8,-3.58 -8,-8 v -36 c 0,-4.42 3.58,-8 8,-8 z"
           inkscape:label="4th-G3" />
        <path
           id="4th-G4"
           class="s1"
           d="m 1408,358 h 36 c 4.42,0 8,3.58 8,8 v 36 c 0,4.42 -3.58,8 -8,8 h -36 c -4.42,0 -8,-3.58 -8,-8 v -36 c 0,-4.42 3.58,-8 8,-8 z m 56,0 h 36 c 4.42,0 8,3.58 8,8 v 36 c 0,4.42 -3.58,8 -8,8 h -36 c -4.42,0 -8,-3.58 -8,-8 v -36 c 0,-4.42 3.58,-8 8,-8 z m 56,0 h 36 c 4.42,0 8,3.58 8,8 v 36 c 0,4.42 -3.58,8 -8,8 h -36 c -4.42,0 -8,-3.58 -8,-8 v -36 c 0,-4.42 3.58,-8 8,-8 z m 56,0 h 36 c 4.42,0 8,3.58 8,8 v 36 c 0,4.42 -3.58,8 -8,8 h -36 c -4.42,0 -8,-3.58 -8,-8 v -36 c 0,-4.42 3.58,-8 8,-8 z m 56,0 h 36 c 4.42,0 8,3.58 8,8 v 36 c 0,4.42 -3.58,8 -8,8 h -36 c -4.42,0 -8,-3.58 -8,-8 v -36 c 0,-4.42 3.58,-8 8,-8 z m 56,0 h 36 c 4.42,0 8,3.58 8,8 v 36 c 0,4.42 -3.58,8 -8,8 h -36 c -4.42,0 -8,-3.58 -8,-8 v -36 c 0,-4.42 3.58,-8 8,-8 z m 56,0 h 36 c 4.42,0 8,3.58 8,8 v 36 c 0,4.42 -3.58,8 -8,8 h -36 c -4.42,0 -8,-3.58 -8,-8 v -36 c 0,-4.42 3.58,-8 8,-8 z"
           inkscape:label="4th-G4" />
      </g>
      <path
         id="4th"
         class="s2"
         d="m538.98 420h-4.37q-0.96 0-1.51-0.55-0.54-0.56-0.41-1.42l3.35-21.66-21.87 0.01q-1.85 0-3.01-1.11-1.03-1.17-0.75-2.83l3.96-25.6q0.14-0.8 0.82-1.35 0.69-0.61 1.64-0.61h4.38q0.89 0 1.43 0.61 0.62 0.55 0.48 1.35l-3.35 21.66h17.5l3.35-21.66q0.14-0.8 0.82-1.35 0.69-0.61 1.64-0.61h4.38q0.89 0 1.43 0.61 0.62 0.55 0.48 1.35l-7.93 51.19q-0.13 0.86-0.89 1.42-0.68 0.55-1.57 0.55zm18.57-15h-3.28q-0.96 0-1.5-0.55-0.52-0.56-0.41-1.42l2.15-13.78h-3.28q-0.48 0-0.79-0.25-0.24-0.3-0.17-0.73l0.31-1.97q0.07-0.37 0.38-0.68 0.41-0.31 0.88-0.31h3.29l1.06-6.89q0.03-0.37 0.37-0.67 0.38-0.31 0.86-0.31h2.18q0.41 0 0.72 0.31 0.27 0.3 0.24 0.67l-1.06 6.89h3.28q0.41 0 0.69 0.31 0.3 0.31 0.24 0.68l-0.31 1.97q-0.07 0.43-0.45 0.73-0.37 0.25-0.78 0.25h-3.28l-1.85 11.81h1.09q0.41 0 0.72 0.31 0.31 0.31 0.24 0.68l-0.31 1.97q-0.07 0.43-0.44 0.73-0.38 0.25-0.79 0.25zm10.23 0h-2.19q-0.48 0-0.79-0.25-0.24-0.3-0.17-0.73l3.97-25.6q0.03-0.37 0.37-0.67 0.38-0.31 0.86-0.31h2.18q0.41 0 0.72 0.31 0.28 0.3 0.24 0.67l-1.06 6.89h10.94q0.89 0 1.4 0.62 0.58 0.55 0.48 1.35l-2.6 16.74q-0.07 0.43-0.44 0.73-0.38 0.25-0.79 0.25h-2.19q-0.47 0-0.78-0.25-0.24-0.3-0.17-0.73l2.29-14.77h-8.75l-2.29 14.77q-0.07 0.43-0.45 0.73-0.37 0.25-0.78 0.25z" />
    </g>
    <g
       id="Standings-5th"
       inkscape:label="Standings-5th">
      <g
         id="5th-Black"
         inkscape:label="5th-Black">
        <path
           id="5th-B1"
           fill-rule="evenodd"
           class="s0"
           d="m498 442h620c5.52 0 10 4.48 10 10v60c0 5.52-4.48 10-10 10h-620c-5.52 0-10-4.48-10-10v-60c0-5.52 4.48-10 10-10z"
           inkscape:label="5th-B1" />
        <path
           id="5th-B2"
           fill-rule="evenodd"
           class="s0"
           d="m1150 442h96c5.52 0 10 4.48 10 10v40c0 5.52-4.48 10-10 10h-96c-5.52 0-10-4.48-10-10v-40c0-5.52 4.48-10 10-10z"
           inkscape:label="5th-B2" />
        <path
           id="5th-B3"
           fill-rule="evenodd"
           class="s0"
           d="m1278 442h96c5.52 0 10 4.48 10 10v40c0 5.52-4.48 10-10 10h-96c-5.52 0-10-4.48-10-10v-40c0-5.52 4.48-10 10-10z"
           inkscape:label="5th-B3" />
        <path
           id="5th-B4"
           fill-rule="evenodd"
           class="s0"
           d="m1406 442h376c5.52 0 10 4.48 10 10v40c0 5.52-4.48 10-10 10h-376c-5.52 0-10-4.48-10-10v-40c0-5.52 4.48-10 10-10z"
           inkscape:label="5th-B4" />
      </g>
      <g
         id="5th-Grey"
         inkscape:label="5th-Grey">
        <path
           id="5th-G1"
           fill-rule="evenodd"
           class="s1"
           d="m608 446h508c4.42 0 8 3.58 8 8v36c0 4.42-3.58 8-8 8h-508c-4.42 0-8-3.58-8-8v-36c0-4.42 3.58-8 8-8z"
           inkscape:label="5th-G1" />
        <path
           id="5th-G2"
           fill-rule="evenodd"
           class="s1"
           d="m1152 446h92c4.42 0 8 3.58 8 8v36c0 4.42-3.58 8-8 8h-92c-4.42 0-8-3.58-8-8v-36c0-4.42 3.58-8 8-8z"
           inkscape:label="5th-G2" />
        <path
           id="5th-G3"
           fill-rule="evenodd"
           class="s1"
           d="m1280 446h92c4.42 0 8 3.58 8 8v36c0 4.42-3.58 8-8 8h-92c-4.42 0-8-3.58-8-8v-36c0-4.42 3.58-8 8-8z"
           inkscape:label="5th-G3" />
        <path
           id="5th-G4"
           class="s1"
           d="m1408 446h36c4.42 0 8 3.58 8 8v36c0 4.42-3.58 8-8 8h-36c-4.42 0-8-3.58-8-8v-36c0-4.42 3.58-8 8-8zm56 0h36c4.42 0 8 3.58 8 8v36c0 4.42-3.58 8-8 8h-36c-4.42 0-8-3.58-8-8v-36c0-4.42 3.58-8 8-8zm56 0h36c4.42 0 8 3.58 8 8v36c0 4.42-3.58 8-8 8h-36c-4.42 0-8-3.58-8-8v-36c0-4.42 3.58-8 8-8zm56 0h36c4.42 0 8 3.58 8 8v36c0 4.42-3.58 8-8 8h-36c-4.42 0-8-3.58-8-8v-36c0-4.42 3.58-8 8-8zm56 0h36c4.42 0 8 3.58 8 8v36c0 4.42-3.58 8-8 8h-36c-4.42 0-8-3.58-8-8v-36c0-4.42 3.58-8 8-8zm56 0h36c4.42 0 8 3.58 8 8v36c0 4.42-3.58 8-8 8h-36c-4.42 0-8-3.58-8-8v-36c0-4.42 3.58-8 8-8zm56 0h36c4.42 0 8 3.58 8 8v36c0 4.42-3.58 8-8 8h-36c-4.42 0-8-3.58-8-8v-36c0-4.42 3.58-8 8-8z"
           inkscape:label="5th-G4" />
      </g>
      <path
         id="5th"
         class="s3"
         d="m536.55 508h-28.44q-0.96 0-1.57-0.49-0.48-0.62-0.34-1.48l0.61-3.94q0.14-0.73 0.75-1.35 0.75-0.61 1.71-0.61l24.06-0.01 1.85-11.81-3.76-3.93h-19.69q-0.95 0-1.57-0.5-0.48-0.61-0.34-1.47l4.31-27.57q0.06-0.73 0.75-1.35 0.75-0.61 1.71-0.61h30.62q0.82 0 1.44 0.61 0.54 0.62 0.48 1.35l-0.62 3.94q-0.14 0.86-0.96 1.48-0.75 0.49-1.57 0.49h-24.06l-2.39 15.75h17.5l7.51 7.88-3.07 19.68q-0.21 1.73-1.78 2.83-1.37 1.11-3.14 1.11zm21-15h-3.28q-0.96 0-1.5-0.55-0.52-0.56-0.41-1.42l2.15-13.78h-3.28q-0.48 0-0.79-0.25-0.24-0.3-0.17-0.73l0.31-1.97q0.07-0.37 0.38-0.68 0.41-0.31 0.88-0.31h3.29l1.06-6.89q0.03-0.37 0.37-0.67 0.38-0.31 0.86-0.31h2.18q0.41 0 0.72 0.31 0.27 0.3 0.24 0.67l-1.06 6.89h3.28q0.41 0 0.69 0.31 0.3 0.31 0.24 0.68l-0.31 1.97q-0.07 0.43-0.45 0.73-0.37 0.25-0.78 0.25h-3.28l-1.85 11.81h1.09q0.41 0 0.72 0.31 0.31 0.31 0.24 0.68l-0.31 1.97q-0.07 0.43-0.44 0.73-0.38 0.25-0.79 0.25zm11.23 0h-2.19q-0.48 0-0.79-0.25-0.24-0.3-0.17-0.73l3.97-25.6q0.03-0.37 0.37-0.67 0.38-0.31 0.86-0.31h2.18q0.41 0 0.72 0.31 0.28 0.3 0.24 0.67l-1.06 6.89h10.94q0.89 0 1.4 0.62 0.58 0.55 0.48 1.35l-2.6 16.74q-0.07 0.43-0.44 0.73-0.38 0.25-0.79 0.25h-2.19q-0.47 0-0.78-0.25-0.24-0.3-0.17-0.73l2.29-14.77h-8.75l-2.29 14.77q-0.07 0.43-0.45 0.73-0.37 0.25-0.78 0.25z" />
    </g>
    <g
       id="Standings-6th"
       inkscape:label="Standings-6th">
      <g
         id="6th-Black"
         inkscape:label="6th-Black">
        <path
           id="6th-B1"
           fill-rule="evenodd"
           class="s0"
           d="m498 530h620c5.52 0 10 4.48 10 10v60c0 5.52-4.48 10-10 10h-620c-5.52 0-10-4.48-10-10v-60c0-5.52 4.48-10 10-10z"
           inkscape:label="6th-B1" />
        <path
           id="6th-B2"
           fill-rule="evenodd"
           class="s0"
           d="m1150 530h96c5.52 0 10 4.48 10 10v40c0 5.52-4.48 10-10 10h-96c-5.52 0-10-4.48-10-10v-40c0-5.52 4.48-10 10-10z"
           inkscape:label="6th-B2" />
        <path
           id="6th-B3"
           fill-rule="evenodd"
           class="s0"
           d="m1278 530h96c5.52 0 10 4.48 10 10v40c0 5.52-4.48 10-10 10h-96c-5.52 0-10-4.48-10-10v-40c0-5.52 4.48-10 10-10z"
           inkscape:label="6th-B3" />
        <path
           id="6th-B4"
           fill-rule="evenodd"
           class="s0"
           d="m1406 530h376c5.52 0 10 4.48 10 10v40c0 5.52-4.48 10-10 10h-376c-5.52 0-10-4.48-10-10v-40c0-5.52 4.48-10 10-10z"
           inkscape:label="6th-B4" />
      </g>
      <g
         id="6th-Grey"
         inkscape:label="6th-Grey">
        <path
           id="6th-G1"
           fill-rule="evenodd"
           class="s1"
           d="m608 534h508c4.42 0 8 3.58 8 8v36c0 4.42-3.58 8-8 8h-508c-4.42 0-8-3.58-8-8v-36c0-4.42 3.58-8 8-8z"
           inkscape:label="6th-G1" />
        <path
           id="6th-G2"
           fill-rule="evenodd"
           class="s1"
           d="m1152 534h92c4.42 0 8 3.58 8 8v36c0 4.42-3.58 8-8 8h-92c-4.42 0-8-3.58-8-8v-36c0-4.42 3.58-8 8-8z"
           inkscape:label="6th-G2" />
        <path
           id="6th-G3"
           fill-rule="evenodd"
           class="s1"
           d="m1280 534h92c4.42 0 8 3.58 8 8v36c0 4.42-3.58 8-8 8h-92c-4.42 0-8-3.58-8-8v-36c0-4.42 3.58-8 8-8z"
           inkscape:label="6th-G3" />
        <path
           id="6th-G4"
           class="s1"
           d="m1408 534h36c4.42 0 8 3.58 8 8v36c0 4.42-3.58 8-8 8h-36c-4.42 0-8-3.58-8-8v-36c0-4.42 3.58-8 8-8zm56 0h36c4.42 0 8 3.58 8 8v36c0 4.42-3.58 8-8 8h-36c-4.42 0-8-3.58-8-8v-36c0-4.42 3.58-8 8-8zm56 0h36c4.42 0 8 3.58 8 8v36c0 4.42-3.58 8-8 8h-36c-4.42 0-8-3.58-8-8v-36c0-4.42 3.58-8 8-8zm56 0h36c4.42 0 8 3.58 8 8v36c0 4.42-3.58 8-8 8h-36c-4.42 0-8-3.58-8-8v-36c0-4.42 3.58-8 8-8zm56 0h36c4.42 0 8 3.58 8 8v36c0 4.42-3.58 8-8 8h-36c-4.42 0-8-3.58-8-8v-36c0-4.42 3.58-8 8-8zm56 0h36c4.42 0 8 3.58 8 8v36c0 4.42-3.58 8-8 8h-36c-4.42 0-8-3.58-8-8v-36c0-4.42 3.58-8 8-8zm56 0h36c4.42 0 8 3.58 8 8v36c0 4.42-3.58 8-8 8h-36c-4.42 0-8-3.58-8-8v-36c0-4.42 3.58-8 8-8z"
           inkscape:label="6th-G4" />
      </g>
      <path
         id="6th"
         fill-rule="evenodd"
         class="s3"
         d="m536.62 596h-26.25q-1.92 0-3.01-1.11-1.03-1.1-0.82-2.83l7.31-47.25 4.99-3.93h28.44q0.82 0 1.43 0.61 0.55 0.62 0.48 1.35l-0.61 3.94q-0.14 0.86-0.96 1.48-0.75 0.49-1.57 0.49h-24.06l-2.4 15.75h21.88l3.76 3.94-3.69 23.62q-0.21 1.73-1.78 2.83-1.37 1.11-3.14 1.11zm-20.72-7.88h17.5l2.46-15.75h-17.5zm41.65-7.12h-3.28q-0.95 0-1.5-0.55-0.51-0.56-0.41-1.42l2.15-13.78h-3.28q-0.48 0-0.79-0.25-0.23-0.3-0.17-0.73l0.31-1.97q0.07-0.37 0.38-0.68 0.41-0.31 0.89-0.31h3.28l1.06-6.89q0.03-0.37 0.37-0.67 0.38-0.31 0.86-0.31h2.18q0.41 0 0.72 0.31 0.28 0.3 0.24 0.67l-1.06 6.89h3.28q0.41 0 0.69 0.31 0.3 0.31 0.24 0.68l-0.31 1.97q-0.07 0.43-0.45 0.73-0.37 0.25-0.78 0.25h-3.28l-1.85 11.81h1.09q0.41 0 0.72 0.31 0.31 0.31 0.24 0.68l-0.31 1.97q-0.06 0.43-0.44 0.73-0.38 0.25-0.79 0.25zm11.23 0h-2.19q-0.48 0-0.79-0.25-0.24-0.3-0.17-0.73l3.97-25.6q0.03-0.37 0.37-0.67 0.38-0.31 0.86-0.31h2.19q0.41 0 0.71 0.31 0.28 0.3 0.24 0.67l-1.06 6.89h10.94q0.89 0 1.4 0.62 0.58 0.55 0.48 1.35l-2.6 16.74q-0.07 0.43-0.44 0.73-0.38 0.25-0.79 0.25h-2.19q-0.47 0-0.78-0.25-0.24-0.3-0.17-0.73l2.29-14.77h-8.75l-2.29 14.77q-0.07 0.43-0.45 0.73-0.37 0.25-0.78 0.25z" />
    </g>
    <g
       id="Standings-7th"
       inkscape:label="Standings-7th">
      <g
         id="7th-Black"
         inkscape:label="7th-Black">
        <path
           id="7th-B1"
           fill-rule="evenodd"
           class="s0"
           d="m 498,618 h 620 c 5.52,0 10,4.48 10,10 v 60 c 0,5.52 -4.48,10 -10,10 H 498 c -5.52,0 -10,-4.48 -10,-10 v -60 c 0,-5.52 4.48,-10 10,-10 z"
           inkscape:label="7th-B1"
           style="display:inline" />
        <path
           id="7th-B2"
           fill-rule="evenodd"
           class="s0"
           d="m1150 618h96c5.52 0 10 4.48 10 10v40c0 5.52-4.48 10-10 10h-96c-5.52 0-10-4.48-10-10v-40c0-5.52 4.48-10 10-10z"
           inkscape:label="7th-B2" />
        <path
           id="7th-B3"
           fill-rule="evenodd"
           class="s0"
           d="m1278 618h96c5.52 0 10 4.48 10 10v40c0 5.52-4.48 10-10 10h-96c-5.52 0-10-4.48-10-10v-40c0-5.52 4.48-10 10-10z"
           inkscape:label="7th-B3" />
        <path
           id="7th-B4"
           fill-rule="evenodd"
           class="s0"
           d="m1406 618h376c5.52 0 10 4.48 10 10v40c0 5.52-4.48 10-10 10h-376c-5.52 0-10-4.48-10-10v-40c0-5.52 4.48-10 10-10z"
           inkscape:label="7th-B4" />
      </g>
      <g
         id="7th-Grey"
         inkscape:label="7th-Grey">
        <path
           id="7th-G1"
           fill-rule="evenodd"
           class="s1"
           d="m608 622h508c4.42 0 8 3.58 8 8v36c0 4.42-3.58 8-8 8h-508c-4.42 0-8-3.58-8-8v-36c0-4.42 3.58-8 8-8z"
           inkscape:label="7th-G1" />
        <path
           id="7th-G2"
           fill-rule="evenodd"
           class="s1"
           d="m1152 622h92c4.42 0 8 3.58 8 8v36c0 4.42-3.58 8-8 8h-92c-4.42 0-8-3.58-8-8v-36c0-4.42 3.58-8 8-8z"
           inkscape:label="7th-G2" />
        <path
           id="7th-G3"
           fill-rule="evenodd"
           class="s1"
           d="m1280 622h92c4.42 0 8 3.58 8 8v36c0 4.42-3.58 8-8 8h-92c-4.42 0-8-3.58-8-8v-36c0-4.42 3.58-8 8-8z"
           inkscape:label="7th-G3" />
        <path
           id="7th-G4"
           class="s1"
           d="m1408 622h36c4.42 0 8 3.58 8 8v36c0 4.42-3.58 8-8 8h-36c-4.42 0-8-3.58-8-8v-36c0-4.42 3.58-8 8-8zm56 0h36c4.42 0 8 3.58 8 8v36c0 4.42-3.58 8-8 8h-36c-4.42 0-8-3.58-8-8v-36c0-4.42 3.58-8 8-8zm56 0h36c4.42 0 8 3.58 8 8v36c0 4.42-3.58 8-8 8h-36c-4.42 0-8-3.58-8-8v-36c0-4.42 3.58-8 8-8zm56 0h36c4.42 0 8 3.58 8 8v36c0 4.42-3.58 8-8 8h-36c-4.42 0-8-3.58-8-8v-36c0-4.42 3.58-8 8-8zm56 0h36c4.42 0 8 3.58 8 8v36c0 4.42-3.58 8-8 8h-36c-4.42 0-8-3.58-8-8v-36c0-4.42 3.58-8 8-8zm56 0h36c4.42 0 8 3.58 8 8v36c0 4.42-3.58 8-8 8h-36c-4.42 0-8-3.58-8-8v-36c0-4.42 3.58-8 8-8zm56 0h36c4.42 0 8 3.58 8 8v36c0 4.42-3.58 8-8 8h-36c-4.42 0-8-3.58-8-8v-36c0-4.42 3.58-8 8-8z"
           inkscape:label="7th-G4" />
      </g>
      <path
         id="7th"
         class="s3"
         d="m525.99 684h-4.37q-0.96 0-1.57-0.49-0.48-0.62-0.34-1.48l3.96-25.59 14.97-11.81 1.16-7.88h-24.06q-0.96 0-1.57-0.49-0.41-0.62-0.28-1.48l0.62-3.94q0.07-0.73 0.75-1.35 0.75-0.61 1.71-0.61h30.63q0.82 0 1.43 0.61 0.55 0.62 0.48 1.35l-2.46 15.75-14.97 11.82-3.62 23.62q-0.14 0.86-0.89 1.48-0.76 0.49-1.58 0.49zm31.56-15h-3.28q-0.96 0-1.5-0.55-0.52-0.56-0.41-1.42l2.15-13.78h-3.28q-0.48 0-0.79-0.25-0.24-0.3-0.17-0.73l0.31-1.97q0.07-0.37 0.38-0.68 0.41-0.31 0.88-0.31h3.29l1.06-6.89q0.03-0.37 0.37-0.67 0.38-0.31 0.86-0.31h2.18q0.41 0 0.72 0.31 0.27 0.3 0.24 0.67l-1.06 6.89h3.28q0.41 0 0.69 0.31 0.3 0.31 0.24 0.68l-0.31 1.97q-0.07 0.43-0.45 0.73-0.37 0.25-0.78 0.25h-3.28l-1.85 11.81h1.09q0.41 0 0.72 0.31 0.31 0.31 0.24 0.68l-0.31 1.97q-0.07 0.43-0.44 0.73-0.38 0.25-0.79 0.25zm10.23 0h-2.19q-0.48 0-0.79-0.25-0.24-0.3-0.17-0.73l3.97-25.6q0.03-0.37 0.37-0.67 0.38-0.31 0.86-0.31h2.18q0.41 0 0.72 0.31 0.28 0.3 0.24 0.67l-1.06 6.89h10.94q0.89 0 1.4 0.62 0.58 0.55 0.48 1.35l-2.6 16.74q-0.07 0.43-0.44 0.73-0.38 0.25-0.79 0.25h-2.19q-0.47 0-0.78-0.25-0.24-0.3-0.17-0.73l2.29-14.77h-8.75l-2.29 14.77q-0.07 0.43-0.45 0.73-0.37 0.25-0.78 0.25z" />
    </g>
    <g
       id="Standings-8th"
       inkscape:label="Standings-8th">
      <g
         id="8th-Black"
         inkscape:label="8th-Black">
        <path
           id="8th-B1"
           fill-rule="evenodd"
           class="s0"
           d="m498 706h620c5.52 0 10 4.48 10 10v60c0 5.52-4.48 10-10 10h-620c-5.52 0-10-4.48-10-10v-60c0-5.52 4.48-10 10-10z"
           inkscape:label="8th-B1" />
        <path
           id="8th-B2"
           fill-rule="evenodd"
           class="s0"
           d="m1150 706h96c5.52 0 10 4.48 10 10v40c0 5.52-4.48 10-10 10h-96c-5.52 0-10-4.48-10-10v-40c0-5.52 4.48-10 10-10z"
           inkscape:label="8th-B2" />
        <path
           id="8th-B3"
           fill-rule="evenodd"
           class="s0"
           d="m1278 706h96c5.52 0 10 4.48 10 10v40c0 5.52-4.48 10-10 10h-96c-5.52 0-10-4.48-10-10v-40c0-5.52 4.48-10 10-10z"
           inkscape:label="8th-B3" />
        <path
           id="8th-B4"
           fill-rule="evenodd"
           class="s0"
           d="m1406 706h376c5.52 0 10 4.48 10 10v40c0 5.52-4.48 10-10 10h-376c-5.52 0-10-4.48-10-10v-40c0-5.52 4.48-10 10-10z"
           inkscape:label="8th-B4" />
      </g>
      <g
         id="8th-Grey"
         inkscape:label="8th-Grey">
        <path
           id="8th-G1"
           fill-rule="evenodd"
           class="s1"
           d="m608 710h508c4.42 0 8 3.58 8 8v36c0 4.42-3.58 8-8 8h-508c-4.42 0-8-3.58-8-8v-36c0-4.42 3.58-8 8-8z"
           inkscape:label="8th-G1" />
        <path
           id="8th-G2"
           fill-rule="evenodd"
           class="s1"
           d="m1152 710h92c4.42 0 8 3.58 8 8v36c0 4.42-3.58 8-8 8h-92c-4.42 0-8-3.58-8-8v-36c0-4.42 3.58-8 8-8z"
           inkscape:label="8th-G2" />
        <path
           id="8th-G3"
           fill-rule="evenodd"
           class="s1"
           d="m1280 710h92c4.42 0 8 3.58 8 8v36c0 4.42-3.58 8-8 8h-92c-4.42 0-8-3.58-8-8v-36c0-4.42 3.58-8 8-8z"
           inkscape:label="8th-G3" />
        <path
           id="8th-G4"
           class="s1"
           d="m1408 710h36c4.42 0 8 3.58 8 8v36c0 4.42-3.58 8-8 8h-36c-4.42 0-8-3.58-8-8v-36c0-4.42 3.58-8 8-8zm56 0h36c4.42 0 8 3.58 8 8v36c0 4.42-3.58 8-8 8h-36c-4.42 0-8-3.58-8-8v-36c0-4.42 3.58-8 8-8zm56 0h36c4.42 0 8 3.58 8 8v36c0 4.42-3.58 8-8 8h-36c-4.42 0-8-3.58-8-8v-36c0-4.42 3.58-8 8-8zm56 0h36c4.42 0 8 3.58 8 8v36c0 4.42-3.58 8-8 8h-36c-4.42 0-8-3.58-8-8v-36c0-4.42 3.58-8 8-8zm56 0h36c4.42 0 8 3.58 8 8v36c0 4.42-3.58 8-8 8h-36c-4.42 0-8-3.58-8-8v-36c0-4.42 3.58-8 8-8zm56 0h36c4.42 0 8 3.58 8 8v36c0 4.42-3.58 8-8 8h-36c-4.42 0-8-3.58-8-8v-36c0-4.42 3.58-8 8-8zm56 0h36c4.42 0 8 3.58 8 8v36c0 4.42-3.58 8-8 8h-36c-4.42 0-8-3.58-8-8v-36c0-4.42 3.58-8 8-8z"
           inkscape:label="8th-G4" />
      </g>
      <path
         id="8th"
         fill-rule="evenodd"
         class="s3"
         d="m536.62 772h-26.25q-1.92 0-3.01-1.11-1.03-1.1-0.82-2.83l7.31-47.25q0.27-1.6 1.64-2.7 1.44-1.23 3.35-1.23h26.25q1.78 0 2.8 1.23 1.23 1.1 0.96 2.7l-7.31 47.25q-0.21 1.73-1.78 2.83-1.37 1.11-3.14 1.11zm-17.03-31.5h17.5l2.4-15.75h-17.5zm-3.7 23.63h17.5l2.47-15.75h-17.5zm41.65-7.13h-3.29q-0.95 0-1.5-0.55-0.51-0.56-0.41-1.42l2.15-13.78h-3.28q-0.48 0-0.78-0.25-0.24-0.3-0.17-0.73l0.3-1.97q0.07-0.37 0.38-0.68 0.41-0.31 0.89-0.31h3.28l1.06-6.89q0.03-0.37 0.38-0.67 0.37-0.31 0.85-0.31h2.19q0.41 0 0.71 0.31 0.28 0.3 0.24 0.67l-1.06 6.89h3.29q0.41 0 0.68 0.31 0.31 0.31 0.24 0.68l-0.31 1.97q-0.07 0.43-0.44 0.73-0.38 0.25-0.79 0.25h-3.28l-1.85 11.81h1.1q0.41 0 0.72 0.31 0.3 0.31 0.23 0.68l-0.3 1.97q-0.07 0.43-0.45 0.73-0.37 0.25-0.78 0.25zm11.22 0h-2.19q-0.48 0-0.78-0.25-0.24-0.3-0.17-0.73l3.96-25.6q0.03-0.37 0.38-0.67 0.37-0.31 0.85-0.31h2.19q0.41 0 0.72 0.31 0.27 0.3 0.24 0.67l-1.06 6.89h10.93q0.89 0 1.4 0.62 0.59 0.55 0.48 1.35l-2.59 16.74q-0.07 0.43-0.45 0.73-0.37 0.25-0.79 0.25h-2.18q-0.48 0-0.79-0.25-0.24-0.3-0.17-0.73l2.29-14.77h-8.75l-2.29 14.77q-0.07 0.43-0.44 0.73-0.38 0.25-0.79 0.25z" />
    </g>
  </g>
</svg>
